<svg preserveAspectRatio="none" overflow="visible" style="display: block;" width="39" height="39" viewBox="0 0 39 39" fill="none" xmlns="http://www.w3.org/2000/svg">
<g id="griddy-icons:tiktok-filled">
<path id="Vector" d="M32.0938 4.875H6.90625C5.785 4.875 4.875 5.785 4.875 6.90625V32.0938C4.875 33.215 5.785 34.125 6.90625 34.125H32.0938C33.215 34.125 34.125 33.215 34.125 32.0938V6.90625C34.125 5.785 33.215 4.875 32.0938 4.875ZM28.4375 17.875C26.2275 17.875 24.2206 16.9812 22.75 15.5431V23.1562C22.75 26.52 20.02 29.25 16.6562 29.25C13.2925 29.25 10.5625 26.52 10.5625 23.1562C10.5625 19.7925 13.2925 17.0625 16.6562 17.0625H17.0625V19.5H16.6562C14.6412 19.5 13 21.1412 13 23.1562C13 25.1713 14.6412 26.8125 16.6562 26.8125C18.6713 26.8125 20.3125 25.1713 20.3125 23.1562V9.75H22.75C22.75 12.8862 25.3013 15.4375 28.4375 15.4375V17.875Z" fill="#AC60E7"/>
</g>
</svg>
